<svg width="70" height="70" viewBox="0 0 70 70" fill="none" xmlns="http://www.w3.org/2000/svg">
<path d="M50.3278 56.9405C50.0874 56.9338 49.8516 56.8725 49.6383 56.7612L43.2603 53.4101L36.8822 56.7612C36.6262 56.8949 36.3379 56.9544 36.0498 56.9332C35.7618 56.9119 35.4854 56.8107 35.2518 56.6409C35.0181 56.471 34.8365 56.2393 34.7275 55.9719C34.6184 55.7044 34.5862 55.4118 34.6344 55.1271L35.8548 48.025L30.6972 42.9984C30.4916 42.7964 30.3463 42.5412 30.2776 42.2613C30.2089 41.9814 30.2195 41.6878 30.3083 41.4136C30.397 41.1394 30.5605 40.8954 30.7802 40.7089C30.9999 40.5223 31.2672 40.4007 31.5522 40.3575L38.6819 39.3233L41.8743 32.8625C42.0048 32.6092 42.2025 32.3968 42.4458 32.2485C42.6891 32.1002 42.9685 32.0218 43.2534 32.0218C43.5383 32.0218 43.8176 32.1002 44.0609 32.2485C44.3041 32.3968 44.5019 32.6092 44.6324 32.8625L47.818 39.3233L54.9476 40.3575C55.2326 40.4007 55.4999 40.5223 55.7196 40.7089C55.9393 40.8954 56.1027 41.1394 56.1915 41.4136C56.2803 41.6878 56.2909 41.9814 56.2222 42.2613C56.1535 42.5412 56.0083 42.7964 55.8026 42.9984L50.645 48.025L51.8654 55.1271C51.9023 55.3491 51.8906 55.5765 51.8312 55.7936C51.7718 56.0107 51.666 56.2124 51.5212 56.3847C51.3764 56.5571 51.1959 56.6959 50.9923 56.7919C50.7887 56.8878 50.5667 56.9386 50.3416 56.9405H50.3278ZM43.2258 50.4934C43.4805 50.4914 43.7317 50.5531 43.9566 50.6727L48.7143 53.1757L47.8042 47.8664C47.7606 47.618 47.7781 47.3627 47.8549 47.1225C47.9318 46.8823 48.0658 46.6644 48.2455 46.4874L52.1137 42.7225L46.7768 41.9435C46.5287 41.9088 46.2929 41.8139 46.0898 41.6673C45.8867 41.5207 45.7225 41.3267 45.6115 41.1022L43.2258 36.2756L40.8401 41.1022C40.7299 41.328 40.5661 41.5234 40.3629 41.6713C40.1598 41.8191 39.9235 41.9149 39.6748 41.9503L34.3448 42.7294L38.1992 46.4874C38.3796 46.664 38.5145 46.8817 38.5926 47.1218C38.6706 47.362 38.6894 47.6174 38.6474 47.8664L37.7372 53.1757L42.5087 50.6727C42.7283 50.5522 42.9753 50.4905 43.2258 50.4934Z" fill="#31A9E0"/>
<path d="M33.8484 26.4224C32.1649 26.4238 30.5189 25.9257 29.1186 24.9913C27.7183 24.0568 26.6267 22.728 25.9818 21.173C25.337 19.6179 25.1679 17.9066 25.496 16.2554C25.8241 14.6043 26.6346 13.0875 27.8249 11.8971C29.0153 10.7068 30.5321 9.89624 32.1832 9.56815C33.8344 9.24007 35.5458 9.40921 37.1008 10.0541C38.6558 10.6989 39.9846 11.7905 40.9191 13.1908C41.8535 14.5911 42.3515 16.2371 42.3502 17.9206C42.3465 20.1743 41.4496 22.3346 39.856 23.9282C38.2624 25.5218 36.1021 26.4187 33.8484 26.4224ZM33.8484 12.17C32.7107 12.1686 31.5982 12.5047 30.6517 13.1358C29.7051 13.7668 28.9669 14.6645 28.5306 15.7152C28.0943 16.7658 27.9794 17.9223 28.2006 19.0383C28.4217 20.1542 28.9688 21.1795 29.7728 21.9845C30.5767 22.7894 31.6014 23.3378 32.7171 23.5602C33.8328 23.7826 34.9894 23.6692 36.0405 23.2341C37.0917 22.7991 37.9903 22.062 38.6225 21.1162C39.2546 20.1703 39.5921 19.0582 39.5921 17.9206C39.5903 16.3972 38.9848 14.9366 37.9082 13.8588C36.8316 12.7809 35.3718 12.1737 33.8484 12.17Z" fill="#31A9E0"/>
<path d="M30.9866 57.0784H22.1263C21.51 57.0784 20.919 56.8335 20.4832 56.3978C20.0475 55.962 19.8027 55.371 19.8027 54.7547V42.8536C19.8063 39.0809 21.3071 35.4638 23.9755 32.7967C26.6438 30.1297 30.2616 28.6306 34.0343 28.6288C35.8438 28.642 37.6255 29.0738 39.2402 29.8906C39.4083 29.9662 39.5596 30.0746 39.6851 30.2097C39.8105 30.3447 39.9077 30.5035 39.9707 30.6767C40.0338 30.8499 40.0614 31.0341 40.0521 31.2182C40.0428 31.4023 39.9967 31.5826 39.9165 31.7486C39.8363 31.9145 39.7236 32.0627 39.5851 32.1844C39.4466 32.3061 39.2852 32.3987 39.1103 32.4569C38.9354 32.5151 38.7506 32.5377 38.5668 32.5233C38.3831 32.5088 38.2041 32.4577 38.0404 32.3729C36.7967 31.7458 35.427 31.4087 34.0343 31.3869C30.9943 31.3905 28.0798 32.5998 25.9302 34.7495C23.7805 36.8991 22.5713 39.8135 22.5676 42.8536V54.3203H30.9866C31.3524 54.3203 31.7032 54.4656 31.9618 54.7242C32.2204 54.9828 32.3657 55.3336 32.3657 55.6993C32.3657 56.0651 32.2204 56.4158 31.9618 56.6744C31.7032 56.933 31.3524 57.0784 30.9866 57.0784Z" fill="#31A9E0"/>
<path d="M34.9931 70C28.071 69.9986 21.3048 67.9447 15.55 64.0981C9.79523 60.2514 5.31027 54.7846 2.66226 48.3891C0.0142508 41.9936 -0.677891 34.9565 0.673369 28.1676C2.02463 21.3787 5.35863 15.143 10.2537 10.2489C15.1488 5.35471 21.3852 2.02194 28.1744 0.67202C34.9635 -0.677903 42.0005 0.0156403 48.3955 2.66491C54.7905 5.31417 60.2563 9.80019 64.1019 15.5558C67.9474 21.3113 70 28.0779 70 35C69.989 44.2804 66.2971 53.1775 59.7342 59.7391C53.1713 66.3007 44.2735 69.9908 34.9931 70ZM34.9931 2.73048C28.6165 2.73184 22.3836 4.65158 17.0823 8.1952C11.7811 11.7388 7.64967 16.7748 5.21041 22.6663C2.77116 28.5579 2.13362 35.0404 3.37846 41.2943C4.6233 47.5481 7.69457 53.2925 12.204 57.8009C16.7133 62.3093 22.4583 65.3794 28.7125 66.6229C34.9666 67.8664 41.449 67.2275 47.34 64.787C53.2311 62.3465 58.2661 58.2139 61.8086 52.9119C65.3511 47.6099 67.2419 41.3765 67.2419 35C67.2401 26.4457 63.8425 18.242 57.7957 12.1913C51.7488 6.14061 43.5473 2.73779 34.9931 2.73048Z" fill="#31A9E0"/>
</svg>
