<svg width="70" height="70" viewBox="0 0 70 70" fill="none" xmlns="http://www.w3.org/2000/svg">
<path d="M35 0C28.0776 0 21.3107 2.0527 15.555 5.89855C9.79931 9.7444 5.31329 15.2107 2.66423 21.6061C0.015162 28.0015 -0.67795 35.0388 0.672531 41.8282C2.02301 48.6175 5.35643 54.8539 10.2513 59.7487C15.1461 64.6435 21.3825 67.9769 28.1718 69.3274C34.9612 70.6779 41.9985 69.9848 48.3939 67.3358C54.7893 64.6867 60.2555 60.2006 64.1014 54.4449C67.9472 48.6892 70 41.9223 70 35C69.9909 25.7202 66.3004 16.8232 59.7386 10.2614C53.1768 3.6996 44.2797 0.00912555 35 0ZM35 67.2355C28.6227 67.2355 22.3887 65.3444 17.0863 61.8013C11.7839 58.2581 7.65136 53.2221 5.21121 47.3301C2.77106 41.4382 2.13295 34.955 3.37759 28.7004C4.62223 22.4458 7.6937 16.7007 12.2036 12.1918C16.7135 7.68287 22.4591 4.61263 28.714 3.36933C34.9689 2.12602 41.452 2.76557 47.3434 5.20698C53.2348 7.64839 58.27 11.7821 61.812 17.0852C65.354 22.3884 67.2438 28.6227 67.2425 35C67.2315 43.5472 63.8308 51.7411 57.7863 57.7843C51.7419 63.8275 43.5472 67.2264 35 67.2355Z" fill="#31A9E0"/>
<path d="M55.2888 39.1845H50.7665L46.7129 29.3333H50.7182C51.5306 29.3315 52.3091 29.0075 52.8829 28.4323C53.4568 27.8572 53.7791 27.0779 53.7791 26.2655V20.8676C53.7791 20.0558 53.4566 19.2773 52.8825 18.7033C52.3085 18.1293 51.53 17.8068 50.7182 17.8068H20.6611C19.8493 17.8068 19.0708 18.1293 18.4967 18.7033C17.9227 19.2773 17.6002 20.0558 17.6002 20.8676V26.3C17.6002 27.1124 17.9225 27.8916 18.4963 28.4668C19.0701 29.0419 19.8486 29.3659 20.6611 29.3677H24.563L20.5094 39.219H16.0905C15.2915 39.219 14.5252 39.5364 13.9602 40.1014C13.3953 40.6663 13.0779 41.4326 13.0779 42.2316V47.7467C13.0779 48.5457 13.3953 49.312 13.9602 49.8769C14.5252 50.4419 15.2915 50.7593 16.0905 50.7593H26.962C27.761 50.7593 28.5273 50.4419 29.0922 49.8769C29.6572 49.312 29.9746 48.5457 29.9746 47.7467V42.2316C29.9746 41.4326 29.6572 40.6663 29.0922 40.1014C28.5273 39.5364 27.761 39.219 26.962 39.219H23.5151L27.5687 29.3677H43.7485L47.8021 39.219H44.4103C43.6113 39.219 42.8451 39.5364 42.2801 40.1014C41.7151 40.6663 41.3977 41.4326 41.3977 42.2316V47.7467C41.3977 48.5457 41.7151 49.312 42.2801 49.8769C42.8451 50.4419 43.6113 50.7593 44.4103 50.7593H55.3095C56.1091 50.7593 56.8761 50.4421 57.4422 49.8773C58.0082 49.3126 58.3271 48.5463 58.329 47.7467V42.2316C58.3326 41.831 58.2566 41.4337 58.1052 41.0628C57.9538 40.6919 57.7301 40.3549 57.4471 40.0713C57.1642 39.7877 56.8276 39.5632 56.4571 39.411C56.0865 39.2587 55.6894 39.1817 55.2888 39.1845ZM15.8354 47.7536V42.2385C15.8354 42.1709 15.8623 42.106 15.9101 42.0582C15.9579 42.0103 16.0228 41.9834 16.0905 41.9834H20.1647V48.0293H16.0905C16.0551 48.0295 16.0202 48.0222 15.9878 48.0081C15.9555 47.994 15.9263 47.9734 15.9024 47.9475C15.8784 47.9215 15.8601 47.891 15.8486 47.8576C15.837 47.8242 15.8325 47.7888 15.8354 47.7536ZM27.2447 47.7536C27.2447 47.8212 27.2178 47.8861 27.17 47.9339C27.1221 47.9818 27.0572 48.0086 26.9896 48.0086H22.9223V41.9627H26.962C26.9961 41.9589 27.0306 41.9621 27.0634 41.9719C27.0962 41.9817 27.1268 41.998 27.1531 42.0199C27.1795 42.0418 27.2013 42.0688 27.217 42.0992C27.2327 42.1297 27.2421 42.1629 27.2447 42.1971V47.7536ZM51.0215 20.8676V26.3C51.0215 26.3811 50.9898 26.4589 50.9331 26.5169C50.8764 26.5749 50.7993 26.6084 50.7182 26.6102H46.1407V20.5644H50.7182C50.7986 20.5644 50.8758 20.5962 50.9327 20.6531C50.9895 20.71 51.0215 20.7872 51.0215 20.8676ZM43.3831 26.6102H28.003V20.5644H43.3831V26.6102ZM20.3577 26.3V20.8676C20.3577 20.7872 20.3897 20.71 20.4466 20.6531C20.5035 20.5962 20.5806 20.5644 20.6611 20.5644H25.2455V26.6102H20.6611C20.6178 26.6095 20.5753 26.5998 20.536 26.5816C20.4968 26.5635 20.4617 26.5374 20.4331 26.505C20.4046 26.4725 20.3831 26.4345 20.3701 26.3932C20.3572 26.352 20.3529 26.3084 20.3577 26.2655V26.3ZM44.1346 47.7674V42.2523C44.1363 42.1852 44.1638 42.1214 44.2112 42.0739C44.2587 42.0264 44.3226 41.999 44.3897 41.9972H48.4639V48.0431H44.3897C44.3534 48.0424 44.3177 48.0341 44.2848 48.0188C44.2519 48.0036 44.2225 47.9816 44.1985 47.9544C44.1745 47.9271 44.1565 47.8953 44.1455 47.8607C44.1344 47.8261 44.1307 47.7896 44.1346 47.7536V47.7674ZM55.5507 47.7674C55.5489 47.8357 55.5206 47.9005 55.4716 47.9481C55.4227 47.9958 55.3571 48.0225 55.2888 48.0224H51.2214V41.9765H55.2888C55.3571 41.9765 55.4227 42.0032 55.4716 42.0508C55.5206 42.0985 55.5489 42.1633 55.5507 42.2316V47.7674Z" fill="#31A9E0"/>
</svg>
