<svg width="70" height="70" viewBox="0 0 70 70" fill="none" xmlns="http://www.w3.org/2000/svg">
<path d="M34.9931 0C28.071 0.00136368 21.3048 2.05522 15.55 5.9019C9.79523 9.74857 5.31027 15.2153 2.66226 21.6108C0.0142505 28.0064 -0.677891 35.0434 0.673369 41.8323C2.02463 48.6212 5.35863 54.857 10.2537 59.7511C15.1488 64.6452 21.3852 67.978 28.1744 69.3279C34.9635 70.6778 42.0005 69.9843 48.3955 67.335C54.7905 64.6858 60.2563 60.1998 64.1019 54.4442C67.9474 48.6886 70 41.922 70 35C69.989 25.7196 66.2971 16.8225 59.7342 10.2609C53.1713 3.69933 44.2735 0.0091242 34.9931 0ZM34.9931 67.2419C28.6165 67.2405 22.3836 65.3484 17.0823 61.8048C11.7811 58.2611 7.64967 53.2252 5.21041 47.3336C2.77116 41.4421 2.13362 34.9595 3.37846 28.7057C4.6233 22.4518 7.69457 16.7075 12.204 12.1991C16.7133 7.69064 22.4583 4.6206 28.7125 3.3771C34.9666 2.1336 41.449 2.7725 47.34 5.21301C53.2311 7.65353 58.2661 11.7861 61.8086 17.0881C65.3511 22.3901 67.2419 28.6234 67.2419 35C67.2328 43.5494 63.832 51.746 57.7859 57.7908C51.7399 63.8355 43.5426 67.2346 34.9931 67.2419Z" fill="#31A9E0"/>
<path d="M40.2143 39.9788H29.6853C29.3196 39.9788 28.9688 40.1241 28.7102 40.3827C28.4516 40.6413 28.3063 40.9921 28.3063 41.3579C28.3619 43.0846 29.0869 44.722 30.328 45.9238C31.5691 47.1256 33.2291 47.7975 34.9567 47.7975C36.6843 47.7975 38.3442 47.1256 39.5854 45.9238C40.8265 44.722 41.5515 43.0846 41.6071 41.3579C41.6071 41.1756 41.571 40.9951 41.5008 40.8269C41.4306 40.6587 41.3279 40.506 41.1983 40.3778C41.0688 40.2495 40.9151 40.1483 40.7462 40.0798C40.5773 40.0113 40.3965 39.977 40.2143 39.9788ZM34.9394 45.2467C34.1511 45.2443 33.3821 45.0032 32.7334 44.5552C32.0848 44.1072 31.587 43.4733 31.3057 42.7369H38.5732C38.2935 43.4717 37.7981 44.1046 37.152 44.5526C36.5059 45.0005 35.7394 45.2425 34.9532 45.2467H34.9394Z" fill="#31A9E0"/>
<path d="M35.007 13.184C30.6915 13.1827 26.4726 14.4612 22.8839 16.8579C19.2951 19.2546 16.4978 22.6618 14.8457 26.6485C13.1936 30.6352 12.761 35.0223 13.6026 39.2549C14.4441 43.4875 16.5221 47.3754 19.5736 50.4269C22.6251 53.4784 26.513 55.5564 30.7456 56.398C34.9782 57.2396 39.3653 56.8069 43.352 55.1548C47.3387 53.5027 50.7459 50.7054 53.1426 47.1167C55.5393 43.5279 56.8178 39.309 56.8165 34.9935C56.8073 29.2121 54.5066 23.6701 50.4185 19.582C46.3305 15.4939 40.7884 13.1932 35.007 13.184ZM35.007 54.0518C31.2373 54.0532 27.5519 52.9366 24.4169 50.8433C21.2818 48.75 18.838 45.7739 17.3945 42.2916C15.951 38.8093 15.5726 34.9771 16.3072 31.2797C17.0417 27.5823 18.8563 24.1858 21.5214 21.5197C24.1865 18.8537 27.5823 17.0379 31.2795 16.302C34.9766 15.566 38.8089 15.943 42.2918 17.3853C45.7746 18.8276 48.7515 21.2703 50.846 24.4046C52.9405 27.5389 54.0584 31.2239 54.0584 34.9935C54.0529 40.0452 52.0442 44.8886 48.4728 48.4613C44.9013 52.0341 40.0587 54.0445 35.007 54.0518Z" fill="#31A9E0"/>
<path d="M29.0825 32.263C29.0828 32.1264 29.0689 31.99 29.0411 31.8562C29.0158 31.7237 28.9765 31.5943 28.9239 31.4701C28.873 31.3451 28.8106 31.2251 28.7378 31.1115C28.6618 30.999 28.574 30.895 28.4757 30.8013C28.0796 30.4299 27.5569 30.2233 27.014 30.2233C26.471 30.2233 25.9483 30.4299 25.5522 30.8013C25.4562 30.8951 25.3706 30.9991 25.2971 31.1115C25.222 31.2249 25.1574 31.3449 25.104 31.4701C25.0546 31.5954 25.0154 31.7245 24.9868 31.8562C24.959 31.99 24.9452 32.1264 24.9454 32.263C24.9454 32.8116 25.1634 33.3378 25.5513 33.7257C25.9392 34.1136 26.4653 34.3316 27.014 34.3316C27.1506 34.3313 27.2869 34.3174 27.4208 34.2902C27.5525 34.2616 27.6816 34.2224 27.8069 34.173C27.9313 34.1182 28.0512 34.0536 28.1655 33.9799C28.2765 33.9046 28.3804 33.8192 28.4757 33.7248C28.8638 33.3372 29.082 32.8115 29.0825 32.263Z" fill="#31A9E0"/>
<path d="M42.4859 30.2291C42.3532 30.2569 42.2238 30.2985 42.0998 30.3532C41.9735 30.4014 41.8532 30.4639 41.7412 30.5394C41.6278 30.6171 41.5217 30.7048 41.424 30.8014C41.0398 31.1915 40.8222 31.7157 40.8173 32.2632C40.8174 32.3976 40.8312 32.5316 40.8586 32.6631C40.8864 32.7958 40.928 32.9252 40.9827 33.0492C41.0309 33.1755 41.0934 33.2958 41.1689 33.4078C41.2445 33.5208 41.3299 33.6269 41.424 33.725C41.624 33.916 41.8578 34.068 42.1136 34.1732C42.2389 34.2226 42.368 34.2618 42.4997 34.2904C42.7666 34.3363 43.0395 34.3363 43.3064 34.2904C43.4381 34.2618 43.5672 34.2226 43.6925 34.1732C43.8177 34.1198 43.9377 34.0552 44.0511 33.9801C44.1656 33.9067 44.272 33.8211 44.3683 33.725C44.4624 33.6269 44.5478 33.5208 44.6234 33.4078C44.6985 33.2944 44.7631 33.1744 44.8165 33.0492C44.8659 32.9239 44.9051 32.7948 44.9337 32.6631C44.961 32.5316 44.9749 32.3976 44.975 32.2632C44.9745 31.7148 44.7563 31.189 44.3683 30.8014C44.1267 30.5573 43.8281 30.3771 43.4995 30.2771C43.1709 30.1772 42.8225 30.1607 42.4859 30.2291Z" fill="#31A9E0"/>
</svg>
